{
  "accessors": [
    {
      "bufferView": 2,
      "componentType": 5126,
      "count": 938,
      "max": [
        0.7086614370346069,
        0.7086614370346069,
        0.06563863903284073
      ],
      "min": [
        -0.7086614370346069,
        -0.7086614370346069,
        -0.06563863903284073
      ],
      "type": "VEC3"
    },
    {
      "bufferView": 2,
      "byteOffset": 11256,
      "componentType": 5126,
      "count": 938,
      "max": [
        1.0,
        1.0,
        1.0
      ],
      "min": [
        -1.0,
        -1.0,
        -1.0
      ],
      "type": "VEC3"
    },
    {
      "bufferView": 3,
      "componentType": 5126,
      "count": 938,
      "max": [
        1.0,
        1.0,
        0.3494201600551605,
        1.0
      ],
      "min": [
        -1.0,
        -1.0,
        -0.34942010045051575,
        1.0
      ],
      "type": "VEC4"
    },
    {
      "bufferView": 1,
      "componentType": 5126,
      "count": 938,
      "max": [
        0.9799132347106934,
        0.995241641998291
      ],
      "min": [
        0.004407488275319338,
        0.008182480931282043
      ],
      "type": "VEC2"
    },
    {
      "bufferView": 1,
      "byteOffset": 7504,
      "componentType": 5126,
      "count": 938,
      "max": [
        0.9799132347106934,
        0.995241641998291
      ],
      "min": [
        0.004407488275319338,
        0.008182480931282043
      ],
      "type": "VEC2"
    },
    {
      "bufferView": 1,
      "byteOffset": 15008,
      "componentType": 5126,
      "count": 938,
      "max": [
        0.9799132347106934,
        0.995241641998291
      ],
      "min": [
        0.004407488275319338,
        0.008182480931282043
      ],
      "type": "VEC2"
    },
    {
      "bufferView": 0,
      "componentType": 5125,
      "count": 3744,
      "type": "SCALAR"
    }
  ],
  "asset": {
    "extras": {
      "author": "plaggy (https://sketchfab.com/plaggy)",
      "license": "CC-BY-4.0 (http://creativecommons.org/licenses/by/4.0/)",
      "source": "https://sketchfab.com/3d-models/cc0-gold-coin-blank-79453f714c0e46ce98fdb4f145e06462",
      "title": "CC0 - Gold Coin Blank"
    },
    "generator": "Sketchfab-11.6.0",
    "version": "2.0"
  },
  "bufferViews": [
    {
      "buffer": 0,
      "byteLength": 14976,
      "name": "floatBufferViews",
      "target": 34963
    },
    {
      "buffer": 0,
      "byteLength": 22512,
      "byteOffset": 14976,
      "byteStride": 8,
      "name": "floatBufferViews",
      "target": 34962
    },
    {
      "buffer": 0,
      "byteLength": 22512,
      "byteOffset": 37488,
      "byteStride": 12,
      "name": "floatBufferViews",
      "target": 34962
    },
    {
      "buffer": 0,
      "byteLength": 15008,
      "byteOffset": 60000,
      "byteStride": 16,
      "name": "floatBufferViews",
      "target": 34962
    }
  ],
  "buffers": [
    {
      "byteLength": 75008,
      "uri": "scene.bin"
    }
  ],
  "images": [
    {
      "uri": "textures/GoldCoinBlank_baseColor.png"
    },
    {
      "uri": "textures/GoldCoinBlank_metallicRoughness.png"
    },
    {
      "uri": "textures/GoldCoinBlank_normal.png"
    }
  ],
  "materials": [
    {
      "name": "GoldCoinBlank",
      "normalTexture": {
        "index": 2
      },
      "occlusionTexture": {
        "index": 1
      },
      "pbrMetallicRoughness": {
        "baseColorTexture": {
          "index": 0
        },
        "metallicRoughnessTexture": {
          "index": 1
        }
      }
    }
  ],
  "meshes": [
    {
      "name": "GoldCoinBlank_GoldCoinBlank_0",
      "primitives": [
        {
          "attributes": {
            "NORMAL": 1,
            "POSITION": 0,
            "TANGENT": 2,
            "TEXCOORD_0": 3,
            "TEXCOORD_1": 4,
            "TEXCOORD_2": 5
          },
          "indices": 6,
          "material": 0,
          "mode": 4
        }
      ]
    }
  ],
  "nodes": [
    {
      "children": [
        1
      ],
      "matrix": [
        1.0,
        0.0,
        0.0,
        0.0,
        0.0,
        2.220446049250313e-16,
        -1.0,
        0.0,
        0.0,
        1.0,
        2.220446049250313e-16,
        0.0,
        0.0,
        0.0,
        0.0,
        1.0
      ],
      "name": "Sketchfab_model"
    },
    {
      "children": [
        2
      ],
      "matrix": [
        1.0,
        0.0,
        0.0,
        0.0,
        0.0,
        0.0,
        1.0,
        0.0,
        0.0,
        -1.0,
        0.0,
        0.0,
        0.0,
        0.0,
        0.0,
        1.0
      ],
      "name": "fcafba5419d54cb1807f12aabf54baff.fbx"
    },
    {
      "children": [
        3
      ],
      "name": "RootNode"
    },
    {
      "children": [
        4
      ],
      "matrix": [
        0.01074725596920081,
        -0.022961288908162604,
        0.001560668194908686,
        0.0,
        0.0015016022991738102,
        -0.001019174269372403,
        -0.02533508355522038,
        0.0,
        0.022965227281127144,
        0.010812052529042361,
        0.0009261967618358905,
        0.0,
        0.0,
        0.0,
        0.0,
        1.0
      ],
      "name": "GoldCoinBlank"
    },
    {
      "mesh": 0,
      "name": "GoldCoinBlank_GoldCoinBlank_0"
    }
  ],
  "samplers": [
    {
      "magFilter": 9729,
      "minFilter": 9987,
      "wrapS": 10497,
      "wrapT": 10497
    }
  ],
  "scene": 0,
  "scenes": [
    {
      "name": "Sketchfab_Scene",
      "nodes": [
        0
      ]
    }
  ],
  "textures": [
    {
      "sampler": 0,
      "source": 0
    },
    {
      "sampler": 0,
      "source": 1
    },
    {
      "sampler": 0,
      "source": 2
    }
  ]
}
